<svg width="24" height="25" fill="none" xmlns="http://www.w3.org/2000/svg"><g clip-path="url(#a)"><path fill-rule="evenodd" clip-rule="evenodd" d="M24 .429H0v24h24v-24Zm-12.075 11.64c-.73-1.513-2.722-4.332-4.574-5.722-1.336-1.003-3.5-1.779-3.5.69 0 .494.282 4.144.448 4.736.576 2.06 2.677 2.585 4.546 2.267-3.266.556-4.097 2.398-2.303 4.239 3.408 3.497 4.898-.878 5.28-1.999l.002-.006c.069-.201.1-.295.101-.213 0-.082.034.014.104.22.382 1.121 1.872 5.494 5.28 1.998 1.794-1.841.963-3.683-2.303-4.239 1.869.318 3.97-.207 4.545-2.267.166-.592.449-4.242.449-4.735 0-2.47-2.165-1.694-3.5-.69-1.852 1.39-3.844 4.208-4.575 5.72Z" fill="#C5B7FF"/></g><defs><clipPath id="a"><path d="M0 4.429a4 4 0 0 1 4-4h16a4 4 0 0 1 4 4v16a4 4 0 0 1-4 4H4a4 4 0 0 1-4-4v-16Z" fill="#fff"/></clipPath></defs></svg>