<svg width="24" height="24" fill="none" xmlns="http://www.w3.org/2000/svg"><g clip-path="url(#a)"><path d="M10.414 9.627a2.858 2.858 0 1 0 3.177 4.752 2.858 2.858 0 0 0-3.177-4.752Zm7.624-3.665a2.882 2.882 0 0 0-.986-.642c-.97-.38-3.086-.365-4.452-.349-.22 0-.423.006-.6.006s-.386 0-.61-.006c-1.367-.016-3.472-.037-4.442.349-.37.144-.702.364-.986.643a2.805 2.805 0 0 0-.642.985c-.38.97-.36 3.091-.349 4.457 0 .22.006.424.006.595 0 .171 0 .375-.006.595-.01 1.366-.032 3.487.349 4.457.144.37.364.702.643.986.278.283.616.498.985.642.97.38 3.086.365 4.452.349.22 0 .423-.006.6-.006s.386 0 .61.006c1.367.016 3.472.037 4.442-.349.37-.144.702-.364.986-.642.283-.28.498-.617.642-.986.386-.965.365-3.075.349-4.447 0-.225-.006-.434-.006-.61 0-.177 0-.38.006-.611.016-1.366.037-3.477-.349-4.447a2.934 2.934 0 0 0-.642-.985v.01Zm-3.595 2.384a4.395 4.395 0 1 1-3.304-.655 4.394 4.394 0 0 1 3.299.655h.005Zm1.564-.07a1.023 1.023 0 0 1-.44-1.055c.038-.203.14-.38.28-.525a.986.986 0 0 1 .524-.278 1.028 1.028 0 0 1 1.227 1.002c0 .134-.027.268-.075.39a1.013 1.013 0 0 1-.943.637c-.203.001-.401-.058-.568-.17h-.005ZM24 3.43A3.432 3.432 0 0 0 20.571 0H3.43A3.432 3.432 0 0 0 0 3.429V20.57A3.432 3.432 0 0 0 3.429 24H20.57A3.432 3.432 0 0 0 24 20.571V3.43Zm-4.875 15.696c-1.002 1.002-2.218 1.318-3.59 1.387-1.414.08-5.656.08-7.07 0-1.372-.07-2.588-.385-3.59-1.387-1.002-1.002-1.318-2.218-1.382-3.59-.08-1.414-.08-5.656 0-7.07.07-1.372.38-2.588 1.382-3.59 1.002-1.002 2.223-1.318 3.59-1.382 1.414-.08 5.656-.08 7.07 0 1.372.07 2.588.38 3.59 1.382 1.002 1.002 1.318 2.218 1.382 3.59.08 1.408.08 5.646 0 7.065-.07 1.372-.38 2.588-1.382 3.59v.005Z" fill="#C5B7FF"/></g><defs><clipPath id="a"><path fill="#fff" d="M0 0h24v24H0z"/></clipPath></defs></svg>