<svg width="24" height="25" fill="none" xmlns="http://www.w3.org/2000/svg"><g clip-path="url(#a)"><rect y=".428" width="24" height="24" rx="3.429" fill="#C5B7FF"/><rect x="3.161" y="3.589" width="17.679" height="17.679" rx="3.429" fill="#fff"/><path d="M12 .428c-6.629 0-12 5.371-12 12 0 6.63 5.371 12 12 12s12-5.37 12-12c0-6.629-5.371-12-12-12Zm5.564 8.163c-.178 1.897-.962 6.504-1.36 8.628-.169.9-.498 1.2-.817 1.229-.697.063-1.224-.46-1.902-.905-1.054-.692-1.654-1.123-2.675-1.8-1.186-.779-.417-1.21.256-1.911.18-.184 3.247-2.976 3.305-3.228.01-.034.014-.15-.058-.213-.073-.063-.174-.038-.247-.024-.106.023-1.793 1.137-5.061 3.344-.478.329-.911.488-1.302.479-.43-.01-1.253-.242-1.868-.44-.75-.242-1.35-.373-1.296-.79.026-.215.324-.436.895-.662a615.978 615.978 0 0 1 6.997-3.015c3.334-1.384 4.025-1.625 4.476-1.635.101 0 .319.024.464.14a.508.508 0 0 1 .17.324c.026.159.034.32.023.48Z" fill="#C5B7FF"/></g><defs><clipPath id="a"><path fill="#fff" transform="translate(0 .428)" d="M0 0h24v24H0z"/></clipPath></defs></svg>