<svg width="69" height="32" viewBox="0 0 69 32" fill="none" xmlns="http://www.w3.org/2000/svg">
<path d="M37.1673 0.0763708H25.5134V25H30.1298V18.7957C30.1298 18.193 30.3709 17.6105 30.8069 17.1851C31.2377 16.7597 31.8276 16.5165 32.438 16.5165H37.1673C39.3729 16.5165 41.4862 15.6505 43.0404 14.1159C44.5997 12.5762 45.4717 10.4895 45.4717 8.31672C45.4768 7.23792 45.2665 6.1642 44.851 5.16644C44.4356 4.16869 43.8252 3.25703 43.0506 2.49226C42.2761 1.72748 41.3631 1.11971 40.3526 0.704399C39.3472 0.28909 38.265 0.0763708 37.1673 0.0763708ZM40.804 8.25088C40.804 8.76241 40.7014 9.26889 40.5014 9.73991C40.3013 10.2109 40.0141 10.6414 39.6447 11.001C39.2806 11.3606 38.8446 11.6493 38.3675 11.8418C37.8905 12.0393 37.3776 12.1355 36.8595 12.1355H30.1093V4.37128H36.8595C37.3776 4.37128 37.8905 4.47257 38.3727 4.6701C38.8497 4.86762 39.2857 5.15631 39.6499 5.51591C40.0141 5.88057 40.3064 6.31108 40.5014 6.7821C40.6963 7.25818 40.7988 7.76466 40.7937 8.2762L40.804 8.25088Z" fill="#6D4AFF"/>
<path d="M9.2995 24.9089L0 0.00552233H5.25245L11.3718 17.8284C11.6128 18.4665 11.7872 19.125 11.8898 19.7986H11.9411C12.0181 19.1199 12.1925 18.4564 12.4592 17.8284L18.599 0.00552233H23.8874L14.5417 24.9089H9.2995Z" fill="#6D4AFF"/>
<path d="M47.2003 24.9084V0H51.2473L63.1577 15.4475C63.5885 15.9793 63.9579 16.5516 64.2708 17.1594H64.3426C64.2605 16.4098 64.2246 15.6551 64.2297 14.9005V0H69V24.9034H64.9529L53.0067 9.45589C52.5861 8.91902 52.2168 8.34671 51.8987 7.744H51.8577C51.9244 8.49358 51.95 9.24823 51.9347 10.0029V24.9034H47.2003V24.9084Z" fill="#6D4AFF"/>
</svg>
