<svg width="24" height="25" fill="none" xmlns="http://www.w3.org/2000/svg"><g clip-path="url(#a)"><path d="M4.934 12.354a7.03 7.03 0 0 0 1.082 3.755l.166.268-.712 2.603 2.673-.701.257.155a7.042 7.042 0 0 0 3.595.985H12c3.89 0 7.141-3.166 7.141-7.06 0-1.886-.814-3.66-2.148-4.993A7.007 7.007 0 0 0 12 5.293c-3.895 0-7.06 3.166-7.066 7.06Zm9.787 4.039c-.675.101-1.2.048-2.544-.53-1.972-.852-3.31-2.76-3.584-3.145-.022-.032-.038-.049-.043-.06-.107-.138-.868-1.151-.868-2.196 0-.985.482-1.494.707-1.73a.773.773 0 0 1 .605-.31c.14 0 .285 0 .408.005h.043c.123 0 .278 0 .434.364.064.155.16.391.262.632.177.429.359.873.391.943.054.107.091.23.016.37-.182.364-.37.557-.498.696-.166.171-.241.252-.123.46.82 1.41 1.64 1.897 2.887 2.524.215.107.338.091.461-.054.123-.139.53-.621.67-.83.139-.214.284-.177.476-.107.193.07 1.238.584 1.452.691l.113.053c.15.075.252.124.294.193.049.102.049.53-.128 1.024-.177.498-1.023.948-1.43 1.007ZM24 3.857A3.432 3.432 0 0 0 20.571.428H3.43A3.432 3.432 0 0 0 0 3.857V21a3.432 3.432 0 0 0 3.429 3.428H20.57A3.432 3.432 0 0 0 24 21V3.857ZM7.934 19.816 3.429 21l1.205-4.404a8.465 8.465 0 0 1-1.136-4.248c.006-4.682 3.814-8.491 8.497-8.491a8.44 8.44 0 0 1 6.01 2.491c1.602 1.607 2.566 3.74 2.566 6.01 0 4.683-3.894 8.492-8.576 8.492a8.488 8.488 0 0 1-4.061-1.034Z" fill="#C5B7FF"/></g><defs><clipPath id="a"><path fill="#fff" transform="translate(0 .428)" d="M0 0h24v24H0z"/></clipPath></defs></svg>