<svg width="125" height="32" viewBox="0 0 125 32" fill="none" xmlns="http://www.w3.org/2000/svg">
<path d="M0 24.7536V8H9.9719V10.1188H2.31447V15.3913H9.62719V17.5101H2.31447V24.7536H0Z" fill="#1B1340"/>
<path d="M20.8675 23.2754C19.7349 24.4251 18.3232 25 16.6325 25C14.9418 25 13.522 24.4251 12.3729 23.2754C11.2403 22.1092 10.674 20.6802 10.674 18.9884C10.674 17.2966 11.2403 15.8758 12.3729 14.7261C13.522 13.5599 14.9418 12.9768 16.6325 12.9768C18.3232 12.9768 19.7349 13.5599 20.8675 14.7261C22.0165 15.8758 22.591 17.2966 22.591 18.9884C22.591 20.6802 22.0165 22.1092 20.8675 23.2754ZM13.9734 16.1551C13.2839 16.8942 12.9392 17.8386 12.9392 18.9884C12.9392 20.1382 13.2839 21.0826 13.9734 21.8217C14.6792 22.5609 15.5656 22.9304 16.6325 22.9304C17.6995 22.9304 18.5777 22.5609 19.2671 21.8217C19.9729 21.0826 20.3258 20.1382 20.3258 18.9884C20.3258 17.8386 19.9729 16.8942 19.2671 16.1551C18.5777 15.4159 17.6995 15.0464 16.6325 15.0464C15.5656 15.0464 14.6792 15.4159 13.9734 16.1551Z" fill="#1B1340"/>
<path d="M24.8057 17.4609C24.8057 16.0647 25.1996 14.9725 25.9875 14.1841C26.7754 13.3792 27.8096 12.9768 29.0899 12.9768C29.5003 12.9768 29.9188 13.0343 30.3456 13.1493V15.2188C30.1979 15.2024 29.9024 15.1942 29.4592 15.1942C28.6877 15.1942 28.0968 15.4077 27.6864 15.8348C27.2761 16.2618 27.0709 16.9845 27.0709 18.0029V24.7536H24.8057V17.4609Z" fill="#1B1340"/>
<path d="M38.4959 24.7536V8H43.7157C45.6034 8 46.9987 8.41063 47.9015 9.23188C48.8207 10.0531 49.2803 11.1783 49.2803 12.6072C49.2803 13.5435 49.0013 14.3237 48.4432 14.9478C47.9015 15.572 47.2613 15.9498 46.5226 16.0812V16.1304C47.5568 16.2618 48.4103 16.656 49.0833 17.313C49.7727 17.97 50.1175 18.8406 50.1175 19.9246C50.1175 21.4193 49.6168 22.6019 48.6155 23.4725C47.6142 24.3266 46.1615 24.7536 44.2574 24.7536H38.4959ZM40.8103 22.6348H44.0851C46.5309 22.6348 47.7537 21.7314 47.7537 19.9246C47.7537 19.0048 47.409 18.3232 46.7196 17.8797C46.0466 17.4362 44.9879 17.2145 43.5434 17.2145H40.8103V22.6348ZM40.8103 15.0957H43.5434C44.7252 15.0957 45.5788 14.8986 46.1041 14.5043C46.6458 14.1101 46.9166 13.4778 46.9166 12.6072C46.9166 10.9483 45.7922 10.1188 43.5434 10.1188H40.8103V15.0957Z" fill="#1B1340"/>
<path d="M60.8551 23.6203C59.9687 24.5401 58.7787 25 57.2849 25C55.7912 25 54.6012 24.5401 53.7148 23.6203C52.8284 22.7005 52.3852 21.5097 52.3852 20.0478V13.2232H54.6504V19.8754C54.6504 20.828 54.872 21.5671 55.3152 22.0928C55.7584 22.6184 56.415 22.8812 57.2849 22.8812C58.1549 22.8812 58.8115 22.6184 59.2547 22.0928C59.6979 21.5671 59.9195 20.828 59.9195 19.8754V13.2232H62.1847V20.0478C62.1847 21.5097 61.7415 22.7005 60.8551 23.6203Z" fill="#1B1340"/>
<path d="M69.1424 25C67.862 25 66.8033 24.6551 65.9661 23.9652C65.1454 23.2754 64.7022 22.3473 64.6365 21.1812H66.9018C66.9674 21.756 67.2054 22.2159 67.6158 22.5609C68.0426 22.9058 68.5514 23.0783 69.1424 23.0783C69.7497 23.0783 70.2175 22.9469 70.5458 22.6841C70.8741 22.4213 71.0382 22.101 71.0382 21.7232C71.0382 21.2797 70.8249 20.9266 70.3981 20.6638C69.9713 20.3845 69.4542 20.1628 68.8469 19.9986C68.256 19.8343 67.6568 19.6372 67.0495 19.4072C66.4586 19.1773 65.9497 18.8077 65.5229 18.2985C65.0961 17.7894 64.8828 17.1406 64.8828 16.3522C64.8828 15.4488 65.2357 14.6604 65.9415 13.987C66.6473 13.3135 67.624 12.9768 68.8715 12.9768C70.0534 12.9768 71.0218 13.2971 71.7769 13.9377C72.532 14.5783 72.967 15.4734 73.0819 16.6232H70.8166C70.6361 15.4734 69.9877 14.8986 68.8715 14.8986C68.3791 14.8986 67.9687 15.03 67.6404 15.2928C67.3121 15.5556 67.148 15.9087 67.148 16.3522C67.148 16.7957 67.3614 17.1488 67.7881 17.4116C68.2149 17.6744 68.7238 17.8879 69.3147 18.0522C69.9221 18.2164 70.5212 18.4135 71.1121 18.6435C71.7195 18.857 72.2365 19.2266 72.6633 19.7522C73.0901 20.2614 73.3035 20.9184 73.3035 21.7232C73.3035 22.6758 72.9095 23.4643 72.1216 24.0884C71.3337 24.6961 70.3406 25 69.1424 25Z" fill="#1B1340"/>
<path d="M75.4929 24.7536V13.2232H77.7581V24.7536H75.4929ZM75.5668 10.587C75.2877 10.3077 75.1482 9.9628 75.1482 9.55217C75.1482 9.14155 75.2877 8.79662 75.5668 8.51739C75.8622 8.22174 76.2151 8.07391 76.6255 8.07391C77.0359 8.07391 77.3806 8.22174 77.6596 8.51739C77.9551 8.79662 78.1028 9.14155 78.1028 9.55217C78.1028 9.9628 77.9551 10.3077 77.6596 10.587C77.3806 10.8662 77.0359 11.0058 76.6255 11.0058C76.2151 11.0058 75.8622 10.8662 75.5668 10.587Z" fill="#1B1340"/>
<path d="M80.7341 17.929C80.7341 16.4671 81.1855 15.2763 82.0883 14.3565C82.9911 13.4367 84.2058 12.9768 85.7324 12.9768C87.2589 12.9768 88.4736 13.4367 89.3764 14.3565C90.2792 15.2763 90.7306 16.4671 90.7306 17.929V24.7536H88.4654V18.1014C88.4654 17.1324 88.2356 16.385 87.776 15.8594C87.3164 15.3174 86.6352 15.0464 85.7324 15.0464C84.8296 15.0464 84.1484 15.3174 83.6887 15.8594C83.2291 16.385 82.9993 17.1324 82.9993 18.1014V24.7536H80.7341V17.929Z" fill="#1B1340"/>
<path d="M98.7664 25C97.0757 25 95.6805 24.4415 94.5807 23.3246C93.4973 22.2077 92.9557 20.7623 92.9557 18.9884C92.9557 17.2145 93.4973 15.7691 94.5807 14.6522C95.6641 13.5353 97.0593 12.9768 98.7664 12.9768C100.293 12.9768 101.59 13.5599 102.657 14.7261C103.74 15.8758 104.282 17.2966 104.282 18.9884C104.282 19.3498 104.265 19.6454 104.233 19.8754H95.2947C95.4589 20.8116 95.8528 21.5589 96.4766 22.1174C97.1168 22.6594 97.88 22.9304 98.7664 22.9304C100.195 22.9304 101.163 22.3884 101.672 21.3043H103.986C103.642 22.4213 102.993 23.3164 102.041 23.9899C101.106 24.6633 100.014 25 98.7664 25ZM95.3194 18.0029H101.943C101.861 17.1981 101.524 16.5082 100.933 15.9333C100.342 15.342 99.62 15.0464 98.7664 15.0464C97.88 15.0464 97.125 15.3174 96.5012 15.8594C95.8939 16.385 95.4999 17.0995 95.3194 18.0029Z" fill="#1B1340"/>
<path d="M110.5 25C109.219 25 108.16 24.6551 107.323 23.9652C106.503 23.2754 106.059 22.3473 105.994 21.1812H108.259C108.325 21.756 108.563 22.2159 108.973 22.5609C109.4 22.9058 109.909 23.0783 110.5 23.0783C111.107 23.0783 111.575 22.9469 111.903 22.6841C112.231 22.4213 112.395 22.101 112.395 21.7232C112.395 21.2797 112.182 20.9266 111.755 20.6638C111.329 20.3845 110.811 20.1628 110.204 19.9986C109.613 19.8343 109.014 19.6372 108.407 19.4072C107.816 19.1773 107.307 18.8077 106.88 18.2985C106.453 17.7894 106.24 17.1406 106.24 16.3522C106.24 15.4488 106.593 14.6604 107.299 13.987C108.005 13.3135 108.981 12.9768 110.229 12.9768C111.411 12.9768 112.379 13.2971 113.134 13.9377C113.889 14.5783 114.324 15.4734 114.439 16.6232H112.174C111.993 15.4734 111.345 14.8986 110.229 14.8986C109.736 14.8986 109.326 15.03 108.998 15.2928C108.669 15.5556 108.505 15.9087 108.505 16.3522C108.505 16.7957 108.719 17.1488 109.145 17.4116C109.572 17.6744 110.081 17.8879 110.672 18.0522C111.279 18.2164 111.878 18.4135 112.469 18.6435C113.077 18.857 113.594 19.2266 114.021 19.7522C114.447 20.2614 114.661 20.9184 114.661 21.7232C114.661 22.6758 114.267 23.4643 113.479 24.0884C112.691 24.6961 111.698 25 110.5 25Z" fill="#1B1340"/>
<path d="M120.839 25C119.559 25 118.5 24.6551 117.663 23.9652C116.842 23.2754 116.399 22.3473 116.333 21.1812H118.598C118.664 21.756 118.902 22.2159 119.312 22.5609C119.739 22.9058 120.248 23.0783 120.839 23.0783C121.446 23.0783 121.914 22.9469 122.242 22.6841C122.571 22.4213 122.735 22.101 122.735 21.7232C122.735 21.2797 122.521 20.9266 122.095 20.6638C121.668 20.3845 121.151 20.1628 120.543 19.9986C119.952 19.8343 119.353 19.6372 118.746 19.4072C118.155 19.1773 117.646 18.8077 117.219 18.2985C116.793 17.7894 116.579 17.1406 116.579 16.3522C116.579 15.4488 116.932 14.6604 117.638 13.987C118.344 13.3135 119.321 12.9768 120.568 12.9768C121.75 12.9768 122.718 13.2971 123.473 13.9377C124.229 14.5783 124.664 15.4734 124.778 16.6232H122.513C122.333 15.4734 121.684 14.8986 120.568 14.8986C120.076 14.8986 119.665 15.03 119.337 15.2928C119.009 15.5556 118.845 15.9087 118.845 16.3522C118.845 16.7957 119.058 17.1488 119.485 17.4116C119.911 17.6744 120.42 17.8879 121.011 18.0522C121.619 18.2164 122.218 18.4135 122.809 18.6435C123.416 18.857 123.933 19.2266 124.36 19.7522C124.787 20.2614 125 20.9184 125 21.7232C125 22.6758 124.606 23.4643 123.818 24.0884C123.03 24.6961 122.037 25 120.839 25Z" fill="#1B1340"/>
</svg>
