<svg width="137" height="32" viewBox="0 0 137 32" fill="none" xmlns="http://www.w3.org/2000/svg">
<path d="M6.08166 23.3581C4.21461 22.298 2.66792 20.7429 1.61677 18.8677C0.555611 16.9126 0 14.7224 0 12.4972C0 10.272 0.555611 8.08182 1.61677 6.12666C2.66792 4.2515 4.20961 2.70137 6.08166 1.63628C8.01878 0.536182 10.2162 -0.028867 12.4486 0.00113551C14.2656 -0.0138658 16.0676 0.351165 17.7294 1.07623C19.2511 1.73128 20.5975 2.73637 21.6587 4.00648C22.7099 5.27159 23.4407 6.77171 23.7961 8.37685H19.1009C18.5703 7.18175 17.7044 6.17166 16.6032 5.4666C15.3768 4.75154 13.9853 4.37151 12.5638 4.36651C11.1422 4.36151 9.74566 4.72654 8.51431 5.4316C7.33302 6.13666 6.36196 7.14675 5.70625 8.35685C5.0255 9.63696 4.67511 11.0621 4.67511 12.5122C4.67511 13.9623 5.03051 15.3874 5.70625 16.6676C6.36196 17.8777 7.33803 18.8877 8.52933 19.5878C9.72064 20.2879 11.0771 20.6429 12.4586 20.6279C13.9202 20.6779 15.3568 20.2979 16.6032 19.5328C17.7044 18.8227 18.5703 17.8127 19.1009 16.6176H23.7961C23.4407 18.2327 22.7048 19.7428 21.6487 21.0179C20.5925 22.293 19.2511 23.2981 17.7294 23.9532C16.0626 24.6682 14.2606 25.0283 12.4486 24.9983C10.2162 25.0333 8.01878 24.4632 6.08166 23.3581Z" fill="#6D4AFF"/>
<path d="M38.2118 8.61732C39.5333 9.30738 40.6244 10.3675 41.3552 11.6676C42.1361 13.0777 42.5265 14.6728 42.4915 16.288V24.5987H38.5021L38.2168 22.1035C37.6962 23.0085 36.9354 23.7436 36.0144 24.2386C35.0283 24.7487 33.9271 25.0037 32.8159 24.9837C31.3943 24.9987 29.9978 24.6187 28.7765 23.8886C27.5451 23.1436 26.544 22.0735 25.8833 20.7984C25.1525 19.3932 24.7871 17.8331 24.8171 16.248C24.7971 14.6928 25.1976 13.1577 25.9734 11.8076C26.7292 10.4925 27.8254 9.41239 29.1519 8.68232C30.5384 7.92226 32.1001 7.54223 33.6819 7.57223C35.2536 7.53723 36.8103 7.89726 38.2118 8.61732ZM36.7502 19.8033C37.6162 18.9732 38.0466 17.7931 38.0466 16.253C38.1017 14.9779 37.6562 13.7378 36.8003 12.7927C36.4048 12.3576 35.9193 12.0176 35.3837 11.7876C34.8431 11.5576 34.2625 11.4476 33.6768 11.4626C33.0862 11.4476 32.5006 11.5626 31.955 11.7976C31.4094 12.0276 30.9238 12.3776 30.5234 12.8127C29.7125 13.7828 29.267 15.0079 29.267 16.268C29.267 17.5281 29.7125 18.7532 30.5234 19.7233C30.9238 20.1533 31.4144 20.4933 31.96 20.7233C32.5055 20.9484 33.0912 21.0584 33.6819 21.0384C34.2475 21.0484 34.8131 20.9434 35.3387 20.7284C35.8642 20.5133 36.3448 20.1983 36.7502 19.8033Z" fill="#6D4AFF"/>
<path d="M49.9247 24.5986H45.4298V0.371546H49.9247V24.5986Z" fill="#6D4AFF"/>
<path d="M69.1608 17.7778H56.5369C56.7372 18.7879 57.2778 19.698 58.0686 20.3581C58.8595 20.9731 59.8406 21.2931 60.8417 21.2681C61.6425 21.2981 62.4434 21.1581 63.1892 20.8581C63.7799 20.5881 64.2654 20.133 64.5757 19.563H68.7403C68.3048 21.2231 67.2687 22.6583 65.8271 23.5933C64.3755 24.5284 62.6837 25.0185 60.9568 24.9935C59.3751 25.0285 57.8084 24.6434 56.4268 23.8784C55.1304 23.1533 54.0693 22.0782 53.3685 20.7731C52.6327 19.393 52.2623 17.8479 52.2873 16.2827C52.2623 14.7176 52.6377 13.1725 53.3835 11.7923C54.0943 10.4922 55.1554 9.41713 56.4418 8.68707C57.7883 7.93201 59.305 7.54698 60.8517 7.57698C62.3633 7.55698 63.85 7.95201 65.1564 8.71207C66.4228 9.46214 67.4589 10.5422 68.1497 11.8373C68.8805 13.2025 69.2559 14.7276 69.2359 16.2777C69.2308 16.7728 69.2108 17.2778 69.1608 17.7778ZM58.0336 12.2024C57.2678 12.8274 56.7272 13.6925 56.5019 14.6576H64.9862C64.8561 13.7075 64.3655 12.8424 63.6147 12.2374C62.8289 11.5923 61.8377 11.2523 60.8216 11.2823C59.8155 11.2523 58.8295 11.5773 58.0336 12.2024Z" fill="#6D4AFF"/>
<path d="M70.8676 15.1128C70.8276 14.1077 70.9877 13.1026 71.3431 12.1576C71.6985 11.2125 72.2441 10.3524 72.9449 9.62735C74.3314 8.25223 76.2435 7.56717 78.6812 7.56717C81.1188 7.56717 83.0259 8.26723 84.4074 9.66235C85.1032 10.3924 85.6438 11.2525 85.9992 12.1976C86.3546 13.1426 86.5147 14.1427 86.4697 15.1528V24.6286H81.9748V15.4678C82.0448 14.4328 81.7645 13.4077 81.1739 12.5576C80.8535 12.2276 80.4681 11.9625 80.0477 11.7825C79.6272 11.6025 79.1667 11.5075 78.7062 11.5075C78.2457 11.5075 77.7902 11.6025 77.3647 11.7825C76.9392 11.9625 76.5588 12.2276 76.2335 12.5576C75.6278 13.4077 75.3325 14.4428 75.3926 15.4829V24.6136H70.8977L70.8676 15.1128Z" fill="#6D4AFF"/>
<path d="M101.146 0.371546H105.641V24.5986H101.551L101.236 22.0284C100.745 22.9435 99.9945 23.6985 99.0835 24.1986C98.0574 24.7386 96.9162 25.0037 95.7599 24.9786C94.4535 24.9836 93.1671 24.6386 92.0408 23.9836C90.8295 23.2735 89.8434 22.2384 89.1977 20.9933C88.4419 19.5382 88.0665 17.913 88.1115 16.2729C88.0665 14.6378 88.4419 13.0176 89.1977 11.5675C89.8434 10.3224 90.8295 9.28731 92.0408 8.57725C93.1721 7.92219 94.4535 7.57716 95.7599 7.58216C96.8811 7.55716 97.9873 7.80218 98.9934 8.29722C99.8944 8.73226 100.645 9.43232 101.146 10.3024V0.371546ZM99.8994 19.7882C100.335 19.3132 100.67 18.7531 100.881 18.1481C101.096 17.543 101.181 16.898 101.141 16.2529C101.141 14.7378 100.72 13.5727 99.8844 12.7626C99.484 12.3626 99.0035 12.0475 98.4779 11.8375C97.9523 11.6225 97.3917 11.5175 96.8211 11.5225C96.2504 11.5275 95.6948 11.6425 95.1693 11.8675C94.6487 12.0875 94.1732 12.4126 93.7777 12.8176C93.3523 13.2826 93.0219 13.8327 92.8117 14.4227C92.5964 15.0178 92.5063 15.6479 92.5364 16.2779C92.4713 17.558 92.9168 18.8131 93.7777 19.7682C94.1782 20.1932 94.6637 20.5283 95.2043 20.7483C95.7449 20.9733 96.3255 21.0783 96.9062 21.0633C97.4668 21.0683 98.0174 20.9533 98.5329 20.7383C99.0535 20.5133 99.519 20.1932 99.8994 19.7882Z" fill="#6D4AFF"/>
<path d="M121.198 8.61732C122.519 9.30738 123.61 10.3675 124.341 11.6676C125.122 13.0777 125.512 14.6728 125.477 16.288V24.5987H121.483L121.198 22.1035C120.672 23.0035 119.911 23.7436 118.99 24.2386C118.004 24.7487 116.903 25.0037 115.792 24.9837C114.37 24.9987 112.974 24.6187 111.757 23.8886C110.526 23.1436 109.52 22.0735 108.859 20.7984C108.128 19.3932 107.763 17.8331 107.793 16.248C107.773 14.6928 108.173 13.1577 108.949 11.8076C109.705 10.4975 110.801 9.41739 112.123 8.68732C113.514 7.92726 115.076 7.54223 116.663 7.57223C118.239 7.53723 119.796 7.89726 121.198 8.61732ZM119.741 19.8033C120.607 18.9732 121.037 17.7931 121.037 16.253C121.093 14.9829 120.647 13.7378 119.796 12.7927C119.391 12.3676 118.905 12.0326 118.365 11.8026C117.824 11.5726 117.243 11.4526 116.658 11.4526C116.072 11.4526 115.491 11.5726 114.951 11.8026C114.41 12.0326 113.925 12.3676 113.519 12.7927C112.708 13.7628 112.268 14.9879 112.268 16.248C112.268 17.5081 112.713 18.7332 113.519 19.7033C113.92 20.1383 114.405 20.4783 114.946 20.7083C115.486 20.9384 116.072 21.0484 116.663 21.0334C117.233 21.0434 117.794 20.9384 118.325 20.7284C118.855 20.5133 119.336 20.1983 119.741 19.8033Z" fill="#6D4AFF"/>
<path d="M127.72 14.7571C127.64 12.8569 128.295 10.9968 129.552 9.56164C130.768 8.23153 132.505 7.56647 134.758 7.56647C135.513 7.56147 136.264 7.64648 137 7.8165V11.8668C136.645 11.8668 136.239 11.8318 135.794 11.8318C134.562 11.8318 133.661 12.1169 133.091 12.6869C132.785 13.0419 132.55 13.452 132.4 13.897C132.255 14.3421 132.2 14.8121 132.235 15.2771V24.6179H127.74L127.72 14.7571Z" fill="#6D4AFF"/>
</svg>
