<svg width="71" height="32" viewBox="0 0 71 32" fill="none" xmlns="http://www.w3.org/2000/svg">
<path d="M14.2174 2.21554C16.0387 3.23065 17.5473 4.72582 18.5844 6.54602C19.6116 8.40623 20.1525 10.5015 20.1525 12.6317C20.1525 14.7619 19.6116 16.8572 18.5844 18.7174C17.5522 20.5476 16.0387 22.0528 14.2174 23.0729C12.2672 24.153 10.0688 24.6981 7.84564 24.653H0V0.63036H7.84564C10.0688 0.585355 12.2672 1.13542 14.2174 2.21554ZM8.10865 20.3726C9.43859 20.3976 10.7487 20.0525 11.9 19.3775C13.0463 18.7024 13.9892 17.7173 14.6194 16.5421C15.2496 15.337 15.5821 13.9969 15.5821 12.6367C15.5821 11.2766 15.2546 9.9364 14.6194 8.73127C13.9991 7.58114 13.086 6.62103 11.9645 5.95096C10.7983 5.25588 9.4634 4.90584 8.10368 4.92584H4.47117V20.3426L8.10865 20.3726Z" fill="#6D4AFF"/>
<path d="M22.1127 14.8819C22.0333 12.9967 22.6785 11.1565 23.9141 9.73131C25.1249 8.41616 26.8271 7.75609 29.0304 7.75609C29.7698 7.75109 30.5092 7.83609 31.2337 8.00111V12.0116C30.8864 12.0116 30.4894 11.9766 30.0477 11.9766C28.8369 11.9766 27.9486 12.2566 27.3878 12.8217C27.0851 13.1717 26.8568 13.5817 26.7129 14.0218C26.569 14.4618 26.5144 14.9269 26.5492 15.3919V24.648H22.1376L22.1127 14.8819Z" fill="#6D4AFF"/>
<path d="M33.0252 4.66077C32.7621 4.41574 32.5537 4.12071 32.4098 3.79067C32.2659 3.46064 32.1964 3.1056 32.2014 2.74556C32.1964 2.38052 32.2709 2.02548 32.4098 1.69044C32.5537 1.3554 32.7621 1.05537 33.0252 0.81034C33.2832 0.550311 33.5859 0.345289 33.9234 0.205273C34.2608 0.0652578 34.6231 -0.00475035 34.9853 0.000250213C35.3476 -0.00475035 35.7049 0.0652578 36.0374 0.205273C36.3698 0.345289 36.6726 0.550311 36.9257 0.81034C37.1887 1.05537 37.3971 1.3554 37.541 1.69044C37.6849 2.02548 37.7544 2.38552 37.7494 2.74556C37.7544 3.1056 37.6849 3.46064 37.541 3.79067C37.3971 4.12071 37.1887 4.41574 36.9257 4.66077C36.6726 4.9158 36.3698 5.11582 36.0374 5.25084C35.7049 5.38585 35.3476 5.45586 34.9903 5.45086C34.628 5.45586 34.2658 5.39086 33.9333 5.25584C33.5909 5.11582 33.2832 4.9158 33.0252 4.66077ZM37.1986 24.628H32.7869V8.08616H37.1986V24.628Z" fill="#6D4AFF"/>
<path d="M44.29 24.628L38.0373 8.0861H42.6821L45.5455 16.537C45.9871 18.0172 46.2452 18.9023 46.3146 19.2123H46.3841C46.5925 18.4173 46.8754 17.5222 47.188 16.537L50.0514 8.0861H54.731L48.4783 24.628H44.29Z" fill="#6D4AFF"/>
<path d="M70.9333 17.872H58.5371C58.7307 18.8721 59.2666 19.7772 60.0457 20.4273C60.8248 21.0374 61.7875 21.3574 62.7701 21.3274C63.5591 21.3574 64.3432 21.2174 65.0727 20.9224C65.6483 20.6423 66.1148 20.1873 66.4175 19.6172H70.5016C70.0748 21.2624 69.0526 22.6876 67.6383 23.6077C66.214 24.5378 64.5516 25.0178 62.8545 24.9978C61.3012 25.0328 59.7628 24.6478 58.4031 23.8927C57.1327 23.1776 56.0906 22.1075 55.3959 20.8123C54.6763 19.4422 54.3091 17.917 54.3339 16.3668C54.3091 14.8167 54.6813 13.2815 55.4157 11.9213C56.1105 10.6312 57.1526 9.56608 58.418 8.841C59.7479 8.09592 61.2466 7.72587 62.7602 7.76088C64.2439 7.74087 65.7079 8.13092 66.9882 8.886C68.2338 9.62608 69.2511 10.6962 69.9309 11.9814C70.6505 13.3315 71.0177 14.8467 70.9978 16.3768C71.0078 16.8769 70.983 17.377 70.9333 17.872ZM60.0011 12.3464C59.2468 12.9665 58.7207 13.8216 58.5024 14.7767H66.8393C66.7103 13.8366 66.2289 12.9765 65.4945 12.3814C64.7253 11.7463 63.7527 11.4063 62.7552 11.4313C61.7578 11.4013 60.7851 11.7263 60.0011 12.3464Z" fill="#6D4AFF"/>
</svg>
