<svg width="24" height="25" fill="none" xmlns="http://www.w3.org/2000/svg"><g clip-path="url(#a)"><path d="M3.429.428A3.432 3.432 0 0 0 0 3.857V21a3.432 3.432 0 0 0 3.429 3.428H20.57A3.432 3.432 0 0 0 24 21V3.857A3.432 3.432 0 0 0 20.571.428H3.43ZM15.76 11.802c1.044.498 1.805 1.259 2.207 2.19.557 1.302.61 3.424-1.082 5.111-1.297 1.291-2.866 1.875-5.095 1.891h-.01c-2.508-.015-4.436-.862-5.727-2.507-1.152-1.462-1.747-3.503-1.768-6.058v-.011c.021-2.556.616-4.591 1.768-6.06 1.296-1.644 3.225-2.49 5.726-2.506h.011c2.513.016 4.463.857 5.796 2.496.66.809 1.142 1.784 1.447 2.914l-1.441.386c-.252-.921-.638-1.709-1.147-2.336-1.039-1.28-2.609-1.934-4.66-1.95-2.036.016-3.579.67-4.58 1.94-.938 1.194-1.426 2.914-1.442 5.116.016 2.202.504 3.927 1.441 5.116 1.002 1.275 2.54 1.928 4.58 1.94 1.838-.017 3.049-.45 4.061-1.463 1.152-1.152 1.13-2.566.761-3.429-.214-.504-.61-.927-1.14-1.248-.13.964-.424 1.725-.885 2.314-.61.777-1.484 1.2-2.593 1.259-.84.048-1.65-.155-2.282-.573-.745-.493-1.178-1.243-1.227-2.116-.09-1.725 1.275-2.963 3.402-3.086a9.37 9.37 0 0 1 2.116.102c-.085-.53-.262-.948-.525-1.254-.359-.418-.916-.632-1.65-.637h-.021c-.59 0-1.393.166-1.907.943l-1.232-.847c.685-1.04 1.8-1.612 3.133-1.612h.033c2.239.016 3.567 1.409 3.701 3.846.075.032.15.064.225.102l.006.027Zm-3.847 3.616c.911-.048 1.95-.407 2.127-2.614a7.41 7.41 0 0 0-1.553-.156c-.172 0-.343.005-.515.016-1.532.086-2.04.83-2.003 1.495.048.894 1.018 1.312 1.95 1.264l-.006-.005Z" fill="#C5B7FF"/></g><defs><clipPath id="a"><path fill="#fff" transform="translate(0 .428)" d="M0 0h24v24H0z"/></clipPath></defs></svg>