<svg width="24" height="25" fill="none" xmlns="http://www.w3.org/2000/svg"><rect y=".428" width="24" height="24" rx="3.429" fill="#C5B7FF"/><path d="m15.83 4-2.677 1.76v9.44c0 .885-.437 1.685-1.12 2.165a2.787 2.787 0 0 1-1.002-2.165v-.523c0-.522-.523-1.077-.523-1.6 0-.362.245-.757.405-1.12a1.074 1.074 0 0 0-.96-1.557c-.597 0-1.034.48-1.034 1.077 0 .16.042.363.117.48.16.363.405.758.405 1.12 0 .523-.522 1.078-.522 1.6v.523c0 .96.277 1.845.8 2.56-1.078-.363-1.878-1.365-1.878-2.56v-.523c0-.522-.522-1.077-.522-1.6 0-.362.245-.757.405-1.12a1.074 1.074 0 0 0-.96-1.557c-.565 0-1.045.48-1.045 1.077 0 .16.042.363.117.48.16.363.405.758.405 1.12 0 .523-.522 1.078-.522 1.6v.523c0 2.645 2.165 4.8 4.8 4.8 2.634 0 4.8-2.165 4.8-4.8V6.795l.522-.363.566.363v8.277c0 1.76-.523 3.563-2.56 4.8 2.08 0 4.64-2.325 4.682-5.323v-8.8L15.831 4ZM9.986 7.477c.598 0 1.078.48 1.078 1.078 0 .597-.48 1.077-1.078 1.077-.597 0-1.077-.48-1.077-1.067 0-.586.48-1.088 1.077-1.088Zm0-2.88c.598 0 1.078.48 1.078 1.078 0 .597-.48 1.077-1.078 1.077-.597 0-1.077-.48-1.077-1.067 0-.586.48-1.088 1.077-1.088Zm-3.2 2.923c.598 0 1.078.48 1.078 1.077 0 .598-.48 1.078-1.078 1.078-.597 0-1.077-.48-1.077-1.078 0-.597.48-1.077 1.077-1.077Zm0-2.88c.598 0 1.078.48 1.078 1.077 0 .598-.48 1.078-1.078 1.078-.597 0-1.077-.48-1.077-1.078 0-.597.48-1.077 1.077-1.077Z" fill="#fff"/></svg>