<svg width="24" height="24" fill="none" xmlns="http://www.w3.org/2000/svg"><g clip-path="url(#a)"><path d="M3.429 0H20.57A3.432 3.432 0 0 1 24 3.429V20.57A3.432 3.432 0 0 1 20.571 24H3.43A3.432 3.432 0 0 1 0 20.571V3.43A3.432 3.432 0 0 1 3.429 0Zm12.958 7.2a1.998 1.998 0 1 0 0-3.996c-.964 0-1.773.685-1.96 1.596a3.229 3.229 0 0 0-2.882 3.209v.01c-1.758.076-3.365.574-4.64 1.367a2.8 2.8 0 0 0-4.516 2.218c0 1.125.66 2.089 1.613 2.539.09 3.252 3.637 5.871 7.998 5.871 4.36 0 7.907-2.62 7.998-5.877a2.8 2.8 0 0 0 1.602-2.533 2.8 2.8 0 0 0-2.802-2.802c-.643 0-1.232.214-1.709.578-1.285-.798-2.909-1.296-4.687-1.36v-.006c0-1.189.884-2.18 2.03-2.34a1.999 1.999 0 0 0 1.945 1.537l.01-.011Zm-8.083 4.377c.782 0 1.382.825 1.339 1.843-.043 1.018-.632 1.387-1.42 1.387-.787 0-1.473-.412-1.425-1.43.048-1.018.723-1.795 1.506-1.795v-.005Zm8.914 1.794c.048 1.018-.643 1.43-1.425 1.43s-1.372-.369-1.42-1.387c-.048-1.018.552-1.843 1.34-1.843.787 0 1.462.783 1.505 1.795v.005Zm-2.255 2.658a3.204 3.204 0 0 1-2.952 1.966 3.195 3.195 0 0 1-2.952-1.966.222.222 0 0 1 .182-.306 28.147 28.147 0 0 1 2.77-.134c.975 0 1.907.048 2.77.134a.222.222 0 0 1 .181.306Z" fill="#C5B7FF"/></g><defs><clipPath id="a"><path fill="#fff" d="M0 0h24v24H0z"/></clipPath></defs></svg>