<svg width="24" height="25" fill="none" xmlns="http://www.w3.org/2000/svg"><g clip-path="url(#a)"><path d="m15.107 12.44-5.1-2.899v5.796l5.1-2.898ZM20.571.427H3.43A3.432 3.432 0 0 0 0 3.857V21a3.432 3.432 0 0 0 3.429 3.428H20.57A3.432 3.432 0 0 0 24 21V3.857A3.432 3.432 0 0 0 20.571.428Zm.772 7.292c.407 1.532.407 4.724.407 4.724s0 3.193-.407 4.72a2.41 2.41 0 0 1-1.725 1.71c-1.516.412-7.618.412-7.618.412s-6.102 0-7.618-.408a2.41 2.41 0 0 1-1.725-1.709c-.407-1.532-.407-4.725-.407-4.725s0-3.198.407-4.724a2.445 2.445 0 0 1 1.725-1.736C5.898 5.57 12 5.57 12 5.57s6.102 0 7.618.413c.84.225 1.5.89 1.725 1.736Z" fill="#C5B7FF"/></g><defs><clipPath id="a"><path fill="#fff" transform="translate(0 .428)" d="M0 0h24v24H0z"/></clipPath></defs></svg>