<svg width="24" height="24" fill="none" xmlns="http://www.w3.org/2000/svg"><path fill-rule="evenodd" clip-rule="evenodd" d="M3.429 0A3.429 3.429 0 0 0 0 3.429V20.57A3.429 3.429 0 0 0 3.429 24H20.57A3.429 3.429 0 0 0 24 20.571V3.43A3.429 3.429 0 0 0 20.571 0H3.43Zm13.853 5.018s2.296 1.024 2.296 4.47c0 0 .047 2.56-.328 4.33-.234 1.117-2.015 2.327-3.983 2.606-4.031.513-6.422-.279-6.422-.279.019.08.03.18.041.297.08.773.225 2.205 3.24 2.124 1.453 0 2.719-.326 2.719-.326l.093 1.257c-2.39 1.118-5.015.699-6.561.28-3.14-.792-3.703-4.19-3.797-7.543V9.487c0-3.445 2.297-4.47 2.297-4.47 2.343-1.117 8.436-1.024 10.405 0Zm-2.062 8.939h1.64V9.72c0-.838-.328-2.793-2.437-2.793-1.875 0-2.344 1.722-2.344 1.722s-.515-1.722-2.343-1.722c-2.203 0-2.437 1.955-2.437 2.793v4.237h1.64V9.86c0-.838.375-1.257 1.078-1.257.844 0 1.266.512 1.266 1.536v2.188h1.593V10.14c0-1.024.422-1.536 1.266-1.536.703 0 1.078.419 1.078 1.257v4.097Z" fill="#C5B7FF"/></svg>