<svg width="24" height="24" fill="none" xmlns="http://www.w3.org/2000/svg"><rect width="24" height="24" rx="3.429" fill="#C5B7FF"/><path d="M6.107 3.75a1.179 1.179 0 1 0 0 2.357c6.51 0 11.786 5.277 11.786 11.786a1.178 1.178 0 1 0 2.357 0c0-7.81-6.333-14.143-14.143-14.143Z" fill="#fff"/><path d="M4.929 10.821a1.178 1.178 0 0 1 1.178-1.178 8.25 8.25 0 0 1 8.25 8.25 1.178 1.178 0 1 1-2.357 0A5.893 5.893 0 0 0 6.107 12a1.179 1.179 0 0 1-1.178-1.179ZM3.75 17.893a2.357 2.357 0 1 1 4.714 0 2.357 2.357 0 0 1-4.714 0Z" fill="#fff"/></svg>