<svg width="62" height="32" viewBox="0 0 62 32" fill="none" xmlns="http://www.w3.org/2000/svg">
<path d="M0 0.635045H6.34317L12.2889 15.0169C12.8188 16.2221 13.2722 17.4523 13.6544 18.7074H13.7155C14.0976 17.4523 14.5511 16.2171 15.0809 15.0169L21.0267 0.635045H27.3699V24.6182H22.7743V8.55109C22.7692 8.02102 22.7946 7.49095 22.8507 6.96588H22.7743C22.6316 7.53096 22.4431 8.08603 22.2036 8.6211L15.6159 24.3382H11.8049L5.19681 8.6211C4.95735 8.08103 4.75355 7.53096 4.59051 6.96588H4.51919C4.57013 7.49095 4.5956 8.02102 4.59051 8.55109V24.6232H0V0.635045Z" fill="#6D4AFF"/>
<path d="M43.0877 8.79618C44.4174 9.48127 45.5179 10.5314 46.2567 11.8166C47.0464 13.2118 47.4438 14.792 47.4132 16.3872V24.6183H43.3883L43.1029 22.1479C42.5782 23.0431 41.8088 23.7732 40.8816 24.2632C39.8881 24.7683 38.7774 25.0233 37.6565 24.9983C36.2248 25.0133 34.8186 24.6383 33.5907 23.9132C32.3476 23.1731 31.3388 22.1129 30.6663 20.8528C29.9326 19.4626 29.5658 17.9174 29.5963 16.3522C29.576 14.812 29.9784 13.2968 30.758 11.9566C31.5222 10.6564 32.6278 9.58628 33.9678 8.86119C35.3536 8.10609 36.9126 7.71603 38.4971 7.73604C40.0918 7.70603 41.6713 8.07108 43.0877 8.79618ZM41.6152 19.8676C42.4916 19.0475 42.9246 17.8924 42.9246 16.3522C42.9807 15.092 42.5272 13.8618 41.6713 12.9267C41.2637 12.5067 40.7746 12.1766 40.2294 11.9466C39.6843 11.7166 39.1035 11.6015 38.5124 11.6015C37.9214 11.6015 37.3355 11.7166 36.7954 11.9466C36.2503 12.1766 35.7612 12.5067 35.3536 12.9267C34.5384 13.8869 34.09 15.097 34.09 16.3472C34.09 17.5973 34.5384 18.8075 35.3536 19.7676C35.7561 20.1977 36.2452 20.5327 36.7954 20.7628C37.3406 20.9878 37.9316 21.1028 38.5226 21.0878C39.0932 21.0978 39.6639 20.9928 40.1988 20.7828C40.7236 20.5777 41.2076 20.2627 41.6152 19.8676Z" fill="#6D4AFF"/>
<path d="M49.8945 4.66562C49.6245 4.42059 49.4105 4.12555 49.2627 3.7955C49.115 3.46546 49.0436 3.11041 49.0487 2.75036C49.0436 2.39032 49.1201 2.03027 49.2627 1.69522C49.4105 1.36018 49.6245 1.06014 49.8945 0.815108C50.4295 0.295039 51.1529 0 51.907 0C52.661 0 53.3845 0.295039 53.9195 0.815108C54.1895 1.06514 54.4035 1.36518 54.5461 1.69522C54.6888 2.03027 54.7652 2.38532 54.7601 2.75036C54.7652 3.11041 54.6939 3.46546 54.5461 3.7955C54.4035 4.12555 54.1895 4.42059 53.9195 4.66562C53.3794 5.17569 52.6559 5.46072 51.907 5.46072C51.1529 5.46072 50.4346 5.17569 49.8945 4.66562ZM54.1742 24.6183H49.6499V8.09107H54.1742V24.6183Z" fill="#6D4AFF"/>
<path d="M62 24.6182H57.4706V0.635045H62V24.6182Z" fill="#6D4AFF"/>
</svg>
