<svg width="24" height="25" fill="none" xmlns="http://www.w3.org/2000/svg"><g clip-path="url(#a)"><rect y=".428" width="24" height="24" rx="3.429" fill="#C5B7FF"/><path d="M18.75 11.039a6.331 6.331 0 0 1-3.7-1.185v5.389a4.9 4.9 0 1 1-4.225-4.855v2.709a2.248 2.248 0 1 0 1.573 2.146V4.713h2.652c-.002.224.018.448.057.669a3.682 3.682 0 0 0 1.625 2.417c.599.396 1.3.606 2.019.606v2.634Z" fill="#fff"/></g><defs><clipPath id="a"><path fill="#fff" transform="translate(0 .428)" d="M0 0h24v24H0z"/></clipPath></defs></svg>