<svg width="67" height="32" viewBox="0 0 67 32" fill="none" xmlns="http://www.w3.org/2000/svg">
<path d="M28.4552 8.03386C23.4067 8.03386 19.6644 11.6621 19.6644 16.4997C19.6644 21.6137 23.2655 25 27.6079 25C30.0086 25 31.915 23.9634 32.9741 22.2011L33.2566 24.6199H37.2107V16.5342C37.2107 11.282 33.4684 8.03386 28.4552 8.03386ZM28.4552 21.1645C25.9486 21.1645 24.0775 19.264 24.0775 16.4997C24.0775 13.7353 25.9839 11.8348 28.4552 11.8348C30.8912 11.8348 32.7976 13.6662 32.7976 16.4997C32.7976 19.6786 30.6088 21.1645 28.4552 21.1645Z" fill="#6D4AFF"/>
<path d="M45.8729 25C49.2621 25 52.157 23.0995 52.157 20.197C52.157 13.9772 43.5781 15.4285 43.5781 12.906C43.5781 12.0767 44.3195 11.4547 45.4845 11.4547C46.6849 11.4547 47.4616 12.1113 47.6381 13.0788H51.8393C51.5922 9.89979 49.1209 7.99931 45.4845 8.03386C41.7423 8.03386 39.4475 10.2108 39.4475 12.906C39.4475 19.1949 47.9205 17.5708 47.9205 20.197C47.9205 20.9917 47.1438 21.5791 45.8729 21.5791C44.6372 21.5791 43.5075 20.9917 43.2957 19.7478H39.0239C39.271 22.8231 42.0247 25 45.8729 25Z" fill="#6D4AFF"/>
<path d="M60.7158 25C64.1051 25 67 23.0995 67 20.197C67 13.9772 58.4211 15.4285 58.4211 12.906C58.4211 12.0767 59.1625 11.4547 60.3275 11.4547C61.5278 11.4547 62.3045 12.1113 62.4811 13.0788H66.6823C66.4351 9.89979 63.9638 7.99931 60.3275 8.03386C56.5852 8.03386 54.2905 10.2108 54.2905 12.906C54.2905 19.1949 62.7635 17.5708 62.7635 20.197C62.7635 20.9917 61.9868 21.5791 60.7158 21.5791C59.4802 21.5791 58.3505 20.9917 58.1386 19.7478H53.8668C54.1139 22.8231 56.8677 25 60.7158 25Z" fill="#6D4AFF"/>
<path d="M11.6011 0H0V24.6207H4.59551V18.4918C4.59551 17.8964 4.83551 17.321 5.26953 16.9008C5.69844 16.4805 6.28564 16.2403 6.89327 16.2403H11.6011C13.7968 16.2403 15.9005 15.3848 17.4476 13.8688C18.9999 12.3479 19.8679 10.2866 19.8679 8.14018C19.873 7.07451 19.6637 6.01383 19.2501 5.0282C18.8365 4.04258 18.2289 3.142 17.4578 2.38652C16.6868 1.63104 15.7779 1.03066 14.772 0.620395C13.7712 0.210134 12.6938 0 11.6011 0ZM15.2214 8.07514C15.2214 8.58047 15.1192 9.08079 14.9201 9.54608C14.721 10.0114 14.435 10.4366 14.0674 10.7919C13.7048 11.1471 13.2708 11.4323 12.796 11.6224C12.3211 11.8175 11.8105 11.9126 11.2948 11.9126H4.57509V4.2427H11.2948C11.8105 4.2427 12.3211 4.34277 12.8011 4.53789C13.2759 4.73302 13.71 5.0182 14.0725 5.37342C14.435 5.73365 14.7261 6.15892 14.9201 6.62422C15.1141 7.09452 15.2162 7.59484 15.2111 8.10016L15.2214 8.07514Z" fill="#6D4AFF"/>
</svg>
