<svg width="98" height="32" viewBox="0 0 98 32" fill="none" xmlns="http://www.w3.org/2000/svg">
<path d="M0 18.2V24.6099H4.49015V18.48C4.49015 17.885 4.72463 17.31 5.1487 16.89C5.56778 16.47 6.14152 16.23 6.73522 16.23H11.3401C13.4854 16.23 15.5459 15.375 17.0625 13.85C18.5792 12.33 19.4323 10.265 19.4323 8.11498C19.4323 5.96498 18.5792 3.89999 17.0625 2.37499C15.5459 0.854998 13.4854 0 11.3351 0H0V8.00998H4.49015V4.23499H11.0358C12.0535 4.23499 13.0264 4.63999 13.7448 5.35999C14.4633 6.07998 14.8674 7.05498 14.8674 8.07498C14.8674 9.09498 14.4633 10.07 13.7448 10.79C13.0264 11.51 12.0535 11.915 11.0358 11.915H6.28122C5.45802 11.915 4.63982 12.075 3.88148 12.395C3.11816 12.71 2.42967 13.175 1.84595 13.76C1.26223 14.345 0.803241 15.04 0.483942 15.8C0.164642 16.555 0 17.375 0 18.2Z" fill="#1B1340"/>
<path d="M20.1259 24.6099V14.845C20.1259 10.86 22.4458 7.68997 27.0906 7.68997C27.834 7.67997 28.5773 7.75997 29.3057 7.93497V11.95C28.7769 11.915 28.3229 11.915 28.1084 11.915C25.6488 11.915 24.5911 13.045 24.5911 15.335V24.6099H20.1259Z" fill="#1B1340"/>
<path d="M30.6426 16.33C30.6426 11.43 34.3345 7.69504 39.4732 7.69504C44.612 7.69504 48.3039 11.43 48.3039 16.33C48.3039 21.23 44.612 25 39.4732 25C34.3345 25 30.6426 21.225 30.6426 16.33ZM43.9035 16.33C43.9035 13.545 42.0376 11.57 39.4732 11.57C36.9039 11.57 35.043 13.54 35.043 16.33C35.043 19.15 36.9089 21.09 39.4732 21.09C42.0426 21.09 43.9035 19.145 43.9035 16.33Z" fill="#1B1340"/>
<path d="M62.5827 16.33C62.5827 11.43 66.2745 7.69504 71.4133 7.69504C76.547 7.69504 80.2389 11.43 80.2389 16.33C80.2389 21.23 76.547 25 71.4133 25C66.2745 25 62.5827 21.225 62.5827 16.33ZM75.8386 16.33C75.8386 13.545 73.9726 11.57 71.4083 11.57C68.8439 11.57 66.978 13.54 66.978 16.33C66.978 19.15 68.8439 21.09 71.4083 21.09C73.9726 21.09 75.8386 19.145 75.8386 16.33Z" fill="#1B1340"/>
<path d="M82.5589 24.61V15.2C82.5589 10.83 85.3378 7.69004 90.2969 7.69004C95.2211 7.69004 98 10.825 98 15.2V24.61H93.5697V15.55C93.5697 13.12 92.4771 11.6 90.2969 11.6C88.1167 11.6 87.0241 13.115 87.0241 15.55V24.61H82.5589Z" fill="#1B1340"/>
<path d="M61.2456 11.6048H56.4262V17.7748C56.4262 19.9248 57.1995 20.9098 59.4146 20.9098C59.6241 20.9098 60.153 20.9098 60.8215 20.8748V24.5048C59.9085 24.7498 59.1003 24.8948 58.2172 24.8948C54.4904 24.8948 51.956 22.6398 51.956 18.3748V11.6048H48.9625V8.0448H49.7109C50.0052 8.0448 50.2996 7.9848 50.569 7.8748C50.8434 7.7598 51.0879 7.5948 51.2974 7.3848C51.507 7.1748 51.6716 6.9298 51.7863 6.6548C51.9011 6.3798 51.956 6.0898 51.956 5.7948V2.43981H56.4212V8.0448H61.2406V11.6048H61.2456Z" fill="#1B1340"/>
</svg>
