<svg width="24" height="24" fill="none" xmlns="http://www.w3.org/2000/svg"><g clip-path="url(#a)"><path d="M3.429 0A3.432 3.432 0 0 0 0 3.429V20.57A3.432 3.432 0 0 0 3.429 24h5.26v-7.81H5.861V12h2.828v-1.805c0-4.666 2.111-6.83 6.697-6.83.868 0 2.368.17 2.984.342V7.5a18.07 18.07 0 0 0-1.586-.054c-2.25 0-3.118.852-3.118 3.065V12h4.479l-.772 4.19h-3.712V24h6.91A3.432 3.432 0 0 0 24 20.571V3.43A3.432 3.432 0 0 0 20.571 0H3.43Z" fill="#C5B7FF"/></g><defs><clipPath id="a"><path fill="#fff" d="M0 0h24v24H0z"/></clipPath></defs></svg>