<svg width="24" height="24" fill="none" xmlns="http://www.w3.org/2000/svg"><g clip-path="url(#a)"><path d="M3.429 0A3.432 3.432 0 0 0 0 3.429V20.57A3.432 3.432 0 0 0 3.429 24H20.57A3.432 3.432 0 0 0 24 20.571V3.43A3.432 3.432 0 0 0 20.571 0H3.43Zm15.916 4.5-5.561 6.354 6.541 8.646h-5.121l-4.008-5.245-4.59 5.245H4.06l5.946-6.798L3.734 4.5h5.25l3.627 4.795L16.8 4.5h2.545ZM17.32 17.979 8.218 5.94H6.702l9.203 12.038H17.32Z" fill="#C5B7FF"/></g><defs><clipPath id="a"><path fill="#fff" d="M0 0h24v24H0z"/></clipPath></defs></svg>