<svg width="101" height="32" viewBox="0 0 101 32" fill="none" xmlns="http://www.w3.org/2000/svg">
<path d="M78.8792 25C76.2337 25 74.0933 24.1703 72.4579 22.5108C70.8225 20.8273 70.0048 18.6989 70.0048 16.1255C70.0048 13.5762 70.8225 11.4598 72.4579 9.77632C74.0933 8.09282 76.1856 7.25107 78.7349 7.25107C81.2842 7.25107 83.3646 8.09282 84.9759 9.77632C86.5873 11.4598 87.3929 13.5762 87.3929 16.1255C87.3929 16.7508 87.3809 17.292 87.3569 17.7489H74.6224C75.1515 19.9134 76.5343 20.9957 78.771 20.9957C80.5026 20.9957 81.7051 20.4906 82.3785 19.4805H86.8879C86.3828 21.3324 85.3848 22.7152 83.8936 23.6291C82.4025 24.543 80.7311 25 78.8792 25ZM74.5863 14.43H82.8475C82.6791 13.5161 82.2101 12.7706 81.4405 12.1934C80.6709 11.5921 79.7691 11.2915 78.7349 11.2915C77.6767 11.2915 76.7748 11.5801 76.0293 12.1573C75.3078 12.7104 74.8268 13.468 74.5863 14.43Z" fill="#6D4AFF"/>
<path d="M63.1063 24.6032V0H68.0847V24.6032H63.1063Z" fill="#6D4AFF"/>
<path d="M54.5483 24.6032V0H59.5267V24.6032H54.5483Z" fill="#6D4AFF"/>
<path d="M7.17894 24.6032L0 0H5.19481L8.94661 14.2857C9.35546 15.8971 9.64406 17.2559 9.81241 18.3622H9.88456C10.077 17.1597 10.3776 15.7768 10.7864 14.2136L14.7186 0H21.2843L25.2165 14.2136C25.6734 15.8249 25.9861 17.2078 26.1544 18.3622H26.2266C26.443 16.8951 26.7196 15.5363 27.0563 14.2857L30.8081 0H36.0029L28.824 24.6032H23.2323L18.6147 7.39539C18.3021 6.19288 18.1097 5.15873 18.0375 4.29293H17.9654C17.8932 5.15873 17.7008 6.19288 17.3882 7.39539L12.7706 24.6032H7.17894Z" fill="#6D4AFF"/>
<path d="M100.356 11.2698H95.4321V17.594C95.4321 19.7977 96.2221 20.8073 98.4853 20.8073C98.6994 20.8073 99.2397 20.8073 99.9227 20.7714V24.4921C98.99 24.7432 98.1642 24.8918 97.262 24.8918C93.4543 24.8918 90.8649 22.5805 90.8649 18.2089V11.2698H87.8066V7.62092H88.5712C88.8719 7.62092 89.1726 7.55942 89.4479 7.44667C89.7282 7.3288 89.978 7.15968 90.1921 6.94443C90.4062 6.72919 90.5744 6.47807 90.6916 6.1962C90.8089 5.91433 90.8649 5.61709 90.8649 5.31472V1.87592H95.427V7.62092H100.351V11.2698H100.356Z" fill="#6D4AFF"/>
<path d="M47.5954 8.40093C48.9335 9.10244 50.041 10.1778 50.7844 11.4937C51.579 12.9224 51.9789 14.5404 51.9481 16.1739V24.6023H47.8979L47.6108 22.0727C47.0827 22.9893 46.3086 23.7369 45.3755 24.2387C44.3758 24.7559 43.2581 25.017 42.1302 24.9914C40.6895 25.0068 39.2745 24.6228 38.0389 23.8803C36.788 23.1224 35.7729 22.0369 35.0961 20.7465C34.3578 19.323 33.9887 17.7408 34.0195 16.138C33.999 14.5609 34.404 13.0094 35.1884 11.6371C35.9574 10.3058 37.07 9.20997 38.4183 8.4675C39.8128 7.6943 41.3817 7.2949 42.9761 7.31538C44.5808 7.28466 46.1702 7.65846 47.5954 8.40093ZM46.1138 19.7378C46.9956 18.898 47.4314 17.7152 47.4314 16.138C47.4878 14.8477 47.0315 13.588 46.1702 12.6305C45.76 12.2004 45.2678 11.8624 44.7193 11.6269C44.1707 11.3913 43.5862 11.2735 42.9915 11.2735C42.3968 11.2735 41.8072 11.3913 41.2637 11.6269C40.7152 11.8624 40.223 12.2004 39.8129 12.6305C38.9926 13.6136 38.5414 14.8528 38.5414 16.1329C38.5414 17.4131 38.9926 18.6522 39.8129 19.6354C40.2179 20.0757 40.71 20.4188 41.2637 20.6544C41.8123 20.8848 42.407 21.0025 43.0017 20.9872C43.576 20.9974 44.1502 20.8899 44.6885 20.6748C45.2166 20.4649 45.7036 20.1423 46.1138 19.7378Z" fill="#6D4AFF"/>
</svg>
